<svg width="18" height="17" viewBox="0 0 18 17" fill="none" xmlns="http://www.w3.org/2000/svg">
<path d="M4.39841 16.3058V5.50069H0.810138V16.3058H4.39879H4.39841ZM2.60503 4.02568C3.85607 4.02568 4.63493 3.19597 4.63493 2.15907C4.61151 1.09854 3.85607 0.291992 2.62882 0.291992C1.40072 0.291992 0.598633 1.09854 0.598633 2.15898C0.598633 3.19588 1.37721 4.02559 2.58151 4.02559H2.60474L2.60503 4.02568ZM6.38458 16.3058H9.97257V10.2724C9.97257 9.94989 9.99599 9.62654 10.0908 9.39619C10.3501 8.75071 10.9405 8.08253 11.9319 8.08253C13.23 8.08253 13.7496 9.07331 13.7496 10.526V16.3058H17.3375V10.1105C17.3375 6.79175 15.5675 5.24737 13.2068 5.24737C11.2713 5.24737 10.4212 6.33011 9.94897 7.06757H9.97285V5.50106H6.38476C6.4316 6.51471 6.38448 16.3062 6.38448 16.3062L6.38458 16.3058Z" fill="#FDFDFD"/>
</svg>
