<svg width="324" height="346" viewBox="0 0 324 346" fill="none" xmlns="http://www.w3.org/2000/svg">
<g filter="url(#filter0_d_19884_2463)">
<path d="M267.498 128.402L168.414 54.138C164.605 51.2873 159.371 51.2873 155.562 54.138L56.4771 128.402C53.7739 130.417 52.2012 133.587 52.2012 136.979V248.965C52.2012 252.135 53.5773 255.01 55.789 256.976C57.6813 258.647 60.1633 259.655 62.8911 259.655H121.772V288.775C121.772 293.002 126.564 295.484 130.004 293.027L177.236 259.655H261.084C263.812 259.655 266.294 258.647 268.187 256.976C270.398 255.01 271.799 252.135 271.799 248.965V136.979C271.799 133.587 270.202 130.417 267.498 128.402Z" fill="#3A91C5"/>
<path d="M84.3936 203.698V77.2135C84.3936 74.24 86.8264 71.8071 89.7999 71.8071H234.175C237.173 71.8071 239.582 74.24 239.582 77.2135V203.698H84.3936Z" fill="#E9F1F4"/>
<path d="M267.498 128.402C269.636 129.999 269.636 133.219 267.498 134.816L186.353 195.638L166.694 180.893C163.892 178.829 160.083 178.829 157.306 180.893L137.622 195.638L56.4771 134.816C54.3392 133.219 54.3392 129.999 56.4771 128.402C53.7739 130.417 52.2012 133.587 52.2012 136.979V248.965C52.2012 252.135 53.5773 255.01 55.789 256.976C57.6813 258.647 60.1633 259.655 62.8911 259.655H121.772V288.775C121.772 293.002 126.564 295.484 130.004 293.027L177.236 259.655H261.084C263.812 259.655 266.294 258.647 268.187 256.976C270.398 255.01 271.799 252.135 271.799 248.965V136.979C271.799 133.587 270.202 130.417 267.498 128.402Z" fill="#4BACD6"/>
<path d="M268.187 256.976C266.294 258.647 263.812 259.654 261.084 259.654H177.236L130.004 293.027C126.564 295.484 121.772 293.002 121.772 288.775V259.654H62.8911C60.1633 259.654 57.6813 258.647 55.7891 256.976L137.622 195.638L157.306 180.893C160.083 178.829 163.892 178.829 166.694 180.893L186.353 195.638L268.187 256.976Z" fill="#5FC3E4"/>
<path d="M162 158C178.569 158 192 144.569 192 128C192 111.431 178.569 98 162 98C145.431 98 132 111.431 132 128C132 144.569 145.431 158 162 158Z" fill="#E34C3D"/>
<path fill-rule="evenodd" clip-rule="evenodd" d="M154.763 116.612C154.206 116.093 153.47 115.81 152.709 115.824C151.948 115.837 151.222 116.145 150.684 116.684C150.145 117.222 149.837 117.948 149.824 118.709C149.81 119.47 150.093 120.206 150.612 120.763L157.348 127.5L150.612 134.237C150.093 134.793 149.81 135.53 149.824 136.291C149.837 137.052 150.145 137.778 150.684 138.316C151.222 138.855 151.948 139.163 152.709 139.176C153.47 139.19 154.206 138.907 154.763 138.388L161.5 131.652L168.237 138.388C168.793 138.907 169.53 139.19 170.291 139.176C171.052 139.163 171.778 138.855 172.316 138.316C172.855 137.778 173.163 137.052 173.176 136.291C173.19 135.53 172.907 134.793 172.388 134.237L165.652 127.5L172.388 120.763C172.907 120.206 173.19 119.47 173.176 118.709C173.163 117.948 172.855 117.222 172.316 116.684C171.778 116.145 171.052 115.837 170.291 115.824C169.53 115.81 168.793 116.093 168.237 116.612L161.5 123.348L154.763 116.612Z" fill="white"/>
</g>
<defs>
<filter id="filter0_d_19884_2463" x="0.675751" y="0.474579" width="322.648" height="345.051" filterUnits="userSpaceOnUse" color-interpolation-filters="sRGB">
<feFlood flood-opacity="0" result="BackgroundImageFix"/>
<feColorMatrix in="SourceAlpha" type="matrix" values="0 0 0 0 0 0 0 0 0 0 0 0 0 0 0 0 0 0 127 0" result="hardAlpha"/>
<feOffset/>
<feGaussianBlur stdDeviation="25.7627"/>
<feComposite in2="hardAlpha" operator="out"/>
<feColorMatrix type="matrix" values="0 0 0 0 0 0 0 0 0 0.576471 0 0 0 0 0.866667 0 0 0 0.6 0"/>
<feBlend mode="normal" in2="BackgroundImageFix" result="effect1_dropShadow_19884_2463"/>
<feBlend mode="normal" in="SourceGraphic" in2="effect1_dropShadow_19884_2463" result="shape"/>
</filter>
</defs>
</svg>
