<svg width="271" height="291" viewBox="0 0 271 291" fill="none" xmlns="http://www.w3.org/2000/svg">
<g filter="url(#filter0_d_19884_3220)">
<path d="M223.996 108.089L140.88 45.7934C137.685 43.4022 133.294 43.4022 130.099 45.7934L46.9824 108.089C44.7148 109.78 43.3955 112.439 43.3955 115.284V209.222C43.3955 211.882 44.5499 214.293 46.4052 215.943C47.9925 217.344 50.0745 218.19 52.3627 218.19H101.754V242.617C101.754 246.163 105.774 248.245 108.66 246.184L148.28 218.19H218.616C220.904 218.19 222.986 217.344 224.573 215.943C226.429 214.293 227.604 211.882 227.604 209.222V115.284C227.604 112.439 226.264 109.78 223.996 108.089Z" fill="#3A91C5"/>
<path d="M70.3994 171.251V65.1501C70.3994 62.6558 72.4402 60.615 74.9345 60.615H196.043C198.558 60.615 200.578 62.6558 200.578 65.1501V171.251H70.3994Z" fill="#E9F1F4"/>
<path d="M223.996 108.089C225.79 109.429 225.79 112.13 223.996 113.47L155.928 164.49L139.437 152.121C137.087 150.39 133.892 150.39 131.562 152.121L115.05 164.49L46.9824 113.47C45.1889 112.13 45.1889 109.429 46.9824 108.089C44.7148 109.78 43.3955 112.439 43.3955 115.284V209.222C43.3955 211.882 44.5499 214.293 46.4052 215.943C47.9925 217.344 50.0745 218.19 52.3627 218.19H101.754V242.617C101.754 246.163 105.774 248.245 108.66 246.184L148.28 218.19H218.616C220.904 218.19 222.986 217.344 224.573 215.943C226.429 214.293 227.604 211.882 227.604 209.222V115.284C227.604 112.439 226.264 109.78 223.996 108.089Z" fill="#4BACD6"/>
<path d="M224.573 215.943C222.986 217.344 220.904 218.19 218.616 218.19H148.28L108.66 246.184C105.774 248.245 101.754 246.163 101.754 242.617V218.19H52.3628C50.0746 218.19 47.9926 217.344 46.4053 215.943L115.05 164.49L131.562 152.121C133.892 150.39 137.087 150.39 139.437 152.121L155.928 164.49L224.573 215.943Z" fill="#5FC3E4"/>
<path d="M135.499 141.306C149.398 141.306 160.665 130.039 160.665 116.14C160.665 102.242 149.398 90.9751 135.499 90.9751C121.601 90.9751 110.334 102.242 110.334 116.14C110.334 130.039 121.601 141.306 135.499 141.306Z" fill="#5ACB4A"/>
<rect width="32.2276" height="32.2276" transform="translate(120.628 101.305)" fill="#5ACB4A"/>
<path d="M147.484 109.362L132.713 124.133L125.999 117.419" stroke="white" stroke-width="6.13858" stroke-linecap="round" stroke-linejoin="round"/>
</g>
<defs>
<filter id="filter0_d_19884_3220" x="0.173771" y="0.778263" width="270.651" height="289.443" filterUnits="userSpaceOnUse" color-interpolation-filters="sRGB">
<feFlood flood-opacity="0" result="BackgroundImageFix"/>
<feColorMatrix in="SourceAlpha" type="matrix" values="0 0 0 0 0 0 0 0 0 0 0 0 0 0 0 0 0 0 127 0" result="hardAlpha"/>
<feOffset/>
<feGaussianBlur stdDeviation="21.6109"/>
<feComposite in2="hardAlpha" operator="out"/>
<feColorMatrix type="matrix" values="0 0 0 0 0 0 0 0 0 0.576471 0 0 0 0 0.866667 0 0 0 0.6 0"/>
<feBlend mode="normal" in2="BackgroundImageFix" result="effect1_dropShadow_19884_3220"/>
<feBlend mode="normal" in="SourceGraphic" in2="effect1_dropShadow_19884_3220" result="shape"/>
</filter>
</defs>
</svg>
