<svg width="18" height="20" viewBox="0 0 18 20" fill="none" xmlns="http://www.w3.org/2000/svg">
<path d="M15.2758 4.45258C15.1431 4.384 15.014 4.30882 14.8888 4.22733C14.5248 3.98669 14.1911 3.70315 13.8948 3.38282C13.1535 2.53462 12.8766 1.67413 12.7746 1.07167H12.7787C12.6936 0.571599 12.7288 0.248047 12.7341 0.248047H9.35769V13.304C9.35769 13.4793 9.35769 13.6525 9.35032 13.8237C9.35032 13.845 9.34827 13.8647 9.34704 13.8876C9.34704 13.897 9.34704 13.9069 9.345 13.9167C9.345 13.9191 9.345 13.9216 9.345 13.9241C9.30941 14.3925 9.15924 14.845 8.90771 15.2418C8.65619 15.6386 8.311 15.9675 7.90253 16.1996C7.47681 16.4418 6.99531 16.5688 6.50552 16.5682C4.9324 16.5682 3.65744 15.2854 3.65744 13.7013C3.65744 12.1171 4.9324 10.8343 6.50552 10.8343C6.80331 10.8341 7.09926 10.8809 7.38239 10.9732L7.38648 7.53534C6.52697 7.42431 5.65377 7.49262 4.82197 7.73596C3.99018 7.97929 3.21784 8.39237 2.55368 8.94914C1.97173 9.45478 1.48247 10.0581 1.10794 10.732C0.965411 10.9777 0.42766 11.9651 0.36254 13.5677C0.321584 14.4774 0.59476 15.4198 0.725 15.8093V15.8174C0.806912 16.0468 1.12432 16.8295 1.64159 17.4893C2.0587 18.0185 2.55151 18.4835 3.10413 18.8691V18.8609L3.11232 18.8691C4.74687 19.9798 6.55917 19.9069 6.55917 19.9069C6.8729 19.8942 7.92383 19.9069 9.11728 19.3413C10.441 18.7143 11.1946 17.7801 11.1946 17.7801C11.676 17.2219 12.0588 16.5857 12.3266 15.899C12.6321 15.0958 12.7341 14.1325 12.7341 13.7475V6.82107C12.7751 6.84564 13.3206 7.20646 13.3206 7.20646C13.3206 7.20646 14.1065 7.71022 15.3328 8.03828C16.2125 8.27173 17.3978 8.32087 17.3978 8.32087V4.96904C16.9825 5.01409 16.1392 4.88303 15.2758 4.45258Z" fill="#FDFDFD"/>
</svg>
