<svg width="21" height="21" viewBox="0 0 21 21" fill="none" xmlns="http://www.w3.org/2000/svg">
<path d="M6.6712 10.2511C6.6712 8.40856 8.16402 6.91451 10.006 6.91451C11.848 6.91451 13.3416 8.40856 13.3416 10.2511C13.3416 12.0936 11.848 13.5876 10.006 13.5876C8.16402 13.5876 6.6712 12.0936 6.6712 10.2511ZM4.86804 10.2511C4.86804 13.0896 7.1683 15.3905 10.006 15.3905C12.8437 15.3905 15.144 13.0896 15.144 10.2511C15.144 7.41256 12.8437 5.11163 10.006 5.11163C7.1683 5.11163 4.86804 7.41256 4.86804 10.2511ZM14.1466 4.90785C14.1465 5.1454 14.2169 5.37764 14.3487 5.57521C14.4806 5.77278 14.6681 5.9268 14.8874 6.01779C15.1068 6.10878 15.3482 6.13266 15.5811 6.08641C15.8141 6.04016 16.0281 5.92586 16.1961 5.75795C16.3641 5.59005 16.4785 5.37608 16.5249 5.14312C16.5713 4.91015 16.5477 4.66865 16.4569 4.44915C16.3661 4.22964 16.2123 4.042 16.0148 3.90995C15.8174 3.77789 15.5853 3.70736 15.3478 3.70726H15.3474C15.029 3.70741 14.7238 3.83394 14.4987 4.05904C14.2735 4.28415 14.1469 4.58944 14.1466 4.90785ZM5.96358 18.3981C4.98803 18.3536 4.45779 18.1911 4.10542 18.0538C3.63826 17.8718 3.30494 17.6552 2.95449 17.3051C2.60404 16.955 2.38711 16.6219 2.20604 16.1546C2.06868 15.8023 1.90618 15.2718 1.86184 14.2959C1.81333 13.2409 1.80364 12.924 1.80364 10.2512C1.80364 7.5783 1.81413 7.26226 1.86184 6.20636C1.90626 5.23054 2.06996 4.70103 2.20604 4.34767C2.38791 3.88038 2.60452 3.54696 2.95449 3.19641C3.30446 2.84586 3.63746 2.62887 4.10542 2.44775C4.45763 2.31034 4.98803 2.1478 5.96358 2.10344C7.01829 2.05492 7.33512 2.04523 10.006 2.04523C12.6769 2.04523 12.994 2.05572 14.0496 2.10344C15.0252 2.14788 15.5545 2.31163 15.9078 2.44775C16.3749 2.62887 16.7083 2.84634 17.0587 3.19641C17.4092 3.54648 17.6253 3.88038 17.8072 4.34767C17.9445 4.69999 18.107 5.23054 18.1514 6.20636C18.1999 7.26226 18.2096 7.5783 18.2096 10.2512C18.2096 12.924 18.1999 13.2401 18.1514 14.2959C18.1069 15.2718 17.9436 15.8022 17.8072 16.1546C17.6253 16.6219 17.4087 16.9554 17.0587 17.3051C16.7087 17.6549 16.3749 17.8718 15.9078 18.0538C15.5556 18.1912 15.0252 18.3537 14.0496 18.3981C12.9949 18.4466 12.6781 18.4563 10.006 18.4563C7.33392 18.4563 7.01797 18.4466 5.96358 18.3981ZM5.88073 0.302801C4.81553 0.351324 4.08765 0.520274 3.45199 0.767694C2.79368 1.0232 2.23638 1.36599 1.67949 1.92216C1.12259 2.47833 0.780788 3.03667 0.525355 3.69517C0.278007 4.33142 0.109105 5.05911 0.0605963 6.12461C0.0112868 7.1918 0 7.53298 0 10.2511C0 12.9692 0.0112868 13.3104 0.0605963 14.3775C0.109105 15.4431 0.278007 16.1707 0.525355 16.807C0.780788 17.4651 1.12267 18.0241 1.67949 18.58C2.2363 19.1359 2.79368 19.4782 3.45199 19.7345C4.08885 19.9819 4.81553 20.1508 5.88073 20.1994C6.94817 20.2479 7.28869 20.26 10.006 20.26C12.7233 20.26 13.0644 20.2487 14.1313 20.1994C15.1966 20.1508 15.9239 19.9819 16.56 19.7345C17.2179 19.4782 17.7756 19.1362 18.3325 18.58C18.8894 18.0238 19.2305 17.4651 19.4866 16.807C19.734 16.1707 19.9037 15.443 19.9514 14.3775C19.9999 13.3096 20.0112 12.9692 20.0112 10.2511C20.0112 7.53298 19.9999 7.1918 19.9514 6.12461C19.9029 5.05903 19.734 4.33102 19.4866 3.69517C19.2305 3.03707 18.8885 2.47921 18.3325 1.92216C17.7765 1.3651 17.2179 1.0232 16.5608 0.767694C15.924 0.520274 15.1965 0.350524 14.1321 0.302801C13.0652 0.254278 12.7241 0.242188 10.0068 0.242188C7.28949 0.242188 6.94817 0.253478 5.88073 0.302801Z" fill="#FDFDFD"/>
</svg>
